{"title":"Exodus  (Action Drama 1960)  Excellent quality in a thimble!","uid":9211999,"size":901322350,"categoryP":"video","categoryS":"movies","magnet":"?xt=urn:btih:96394ed71bb51b496faa1d4e1208a54de6f55d53&amp;dn=Exodus++%28Action+Drama+1960%29++Excellent+quality+in+a+thimble%21&amp;tr=udp%3A%2F%2Ftracker.openbittorrent.com%3A80&amp;tr=udp%3A%2F%2Fopen.demonii.com%3A1337&amp;tr=udp%3A%2F%2Ftracker.coppersurfer.tk%3A6969&amp;tr=udp%3A%2F%2Fexodus.desync.com%3A6969","seeders":2,"leechers":0,"uploader":"BurtonW","files":12,"time":1384804522,"description":"Description\nAttn: Bob\n\nThe screenshots are included merely to provide the average viewer with a means to determine the quality of the movie they were taken from and, thereby, help them to decide whether or not to download the movie. The screenshots can be previewed at Kickasstorrents under the same torrent title.\n\nA sample of the movie is included with that same purpose in mind. \n\nStoryline\n\nThe theme is the founding of the state of Israel. The action begins on a ship filled with Jewish immigrants bound for Israel who are being off loaded on Cyprus. An Intelligence officer succeeds in getting them back on board their ship only to have the harbor blocked by the British with whom they must negotiate. The second part of the film is about the situation in Israel as independence is declared and most of their neighbors attack them. \n\nTechnical info:\n\nGeneral:\nComplete name :Exodus (Action Drama 1960) Paul Newman, Eva Marie Saint &amp; Ralph Richardson.mp4\nFormat : MPEG-4\nFormat profile : Base Media / Version 2\nCodec ID : mp42\nFile size : 850 MiB\nDuration : 3h 19mn\nOverall bit rate mode : Variable\nOverall bit rate : 596 Kbps\nEncoded date : UTC 2013-11-18 09:28:34\nTagged date : UTC 2013-11-18 17:28:52\n\nVideo:\nID : 1\nFormat : AVC\nFormat/Info : Advanced Video Codec\nFormat profile : &lt;a class=&quot;__cf_email__&quot; href=&quot;/cdn-cgi/l/email-protection&quot; data-cfemail=&quot;2c614d45426c6018021c&quot;&gt;[email&amp;#160;protected]&lt;/a&gt;&lt;script cf-hash='f9e31' type=&quot;text/javascript&quot;&gt;\n/* &lt;![CDATA[ */!function(){try{var t=&quot;currentScript&quot;in document?document.currentScript:function(){for(var t=document.getElementsByTagName(&quot;script&quot;),e=t.length;e--;)if(t[e].getAttribute(&quot;cf-hash&quot;))return t[e]}();if(t&amp;&amp;t.previousSibling){var e,r,n,i,c=t.previousSibling,a=c.getAttribute(&quot;data-cfemail&quot;);if(a){for(e=&quot;&quot;,r=parseInt(a.substr(0,2),16),n=2;a.length-n;n+=2)i=parseInt(a.substr(n,2),16)^r,e+=String.fromCharCode(i);e=document.createTextNode(e),c.parentNode.replaceChild(e,c)}}}catch(u){}}();/* ]]&gt; */&lt;/script&gt;\nFormat settings, CABAC : Yes\nFormat settings, ReFrames : 16 frames\nCodec ID : avc1\nCodec ID/Info : Advanced Video Coding\nDuration : 3h 19mn\nBit rate mode : Variable\nBit rate : 432 Kbps\nWidth : 752 pixels\nHeight : 320 pixels\nDisplay aspect ratio : 2.35:1\nFrame rate mode : Constant\nFrame rate : 25.000 fps\nColor space : YUV\nChroma subsampling : 4:2:0\nBit depth : 8 bits\nScan type : Progressive\nBits/(Pixel*Frame) : 0.072\nStream size : 616 MiB (72%)\nWriting library : x264 core 130 r2273 b3065e6\nEncoded date : UTC 2013-11-18 09:28:34\nTagged date : UTC 2013-11-18 17:28:52\nColor primaries : BT.709\nTransfer characteristics : BT.709\nMatrix coefficients : BT.709\n\nAudio:\nID : 2\nFormat : AAC\nFormat/Info : Advanced Audio Codec\nFormat profile : LC\nCodec ID : 40\nDuration : 3h 19mn\nBit rate mode : Variable\nBit rate : 160 Kbps\nMaximum bit rate : 342 Kbps\nChannel(s) : 2 channels\nChannel positions : Front: L R\nSampling rate : 48.0 KHz\nCompression mode : Lossy\nDelay relative to video : 80ms\nStream size : 228 MiB (27%)\nEncoded date : UTC 2013-11-18 09:28:34\nTagged date : UTC 2013-11-18 17:28:51\n\nText\nID : 3\nFormat : Timed text\nMuxing mode : sbtl\nCodec ID : tx3g\nDuration : 3h 17mn\nBit rate mode : Variable\nBit rate : 66 bps\nDelay relative to video : 80ms\nStream size : 94.9 KiB (0%)\nLanguage : English\nEncoded date : UTC 2013-11-18 09:28:34\nTagged date : UTC 2013-11-18 17:28:51\n","torrent":{"xt":"urn:btih:96394ed71bb51b496faa1d4e1208a54de6f55d53","amp;dn":"Exodus++%28Action+Drama+1960%29++Excellent+quality+in+a+thimble%21","amp;tr":["udp%3A%2F%2Ftracker.openbittorrent.com%3A80","udp%3A%2F%2Fopen.demonii.com%3A1337","udp%3A%2F%2Ftracker.coppersurfer.tk%3A6969","udp%3A%2F%2Fexodus.desync.com%3A6969"],"infoHash":"96394ed71bb51b496faa1d4e1208a54de6f55d53","infoHashBuffer":{"type":"Buffer","data":[150,57,78,215,27,181,27,73,111,170,29,78,18,8,165,77,230,245,93,83]},"announce":[],"urlList":[]}}